<?xml version="1.0" encoding="UTF-8"?>
<svg width="184px" height="214px" viewBox="0 0 184 214" version="1.1" xmlns="http://www.w3.org/2000/svg" xmlns:xlink="http://www.w3.org/1999/xlink">
    <!-- Generator: Sketch 52.4 (67378) - http://www.bohemiancoding.com/sketch -->
    <title>bwh-logo</title>
    <desc>Created with Sketch.</desc>
    <defs>
        <linearGradient x1="89.7615837%" y1="86.4454583%" x2="17.8315538%" y2="15.2989983%" id="linearGradient-1">
            <stop stop-color="#FFFFFF" offset="3.07%"></stop>
            <stop stop-color="#FFFFFF" offset="25.15%"></stop>
            <stop stop-color="#FBFDFE" offset="33.69%"></stop>
            <stop stop-color="#EFF5FA" offset="42.44%"></stop>
            <stop stop-color="#DAE9F4" offset="51.29%"></stop>
            <stop stop-color="#BDD8EB" offset="60.21%"></stop>
            <stop stop-color="#98C2E0" offset="69.19%"></stop>
            <stop stop-color="#6BA7D2" offset="78.21%"></stop>
            <stop stop-color="#3687C2" offset="87.1%"></stop>
            <stop stop-color="#0067B1" offset="95.09%"></stop>
        </linearGradient>
        <linearGradient x1="2.40869333%" y1="50.1545365%" x2="98.0846155%" y2="49.9109834%" id="linearGradient-2">
            <stop stop-color="#FFFFFF" offset="3.07%"></stop>
            <stop stop-color="#FFFFFF" offset="25.15%"></stop>
            <stop stop-color="#FBFDFE" offset="33.69%"></stop>
            <stop stop-color="#EFF5FA" offset="42.44%"></stop>
            <stop stop-color="#DAE9F4" offset="51.29%"></stop>
            <stop stop-color="#BDD8EB" offset="60.21%"></stop>
            <stop stop-color="#98C2E0" offset="69.19%"></stop>
            <stop stop-color="#6BA7D2" offset="78.21%"></stop>
            <stop stop-color="#3687C2" offset="87.1%"></stop>
            <stop stop-color="#0067B1" offset="95.09%"></stop>
        </linearGradient>
        <linearGradient x1="73.1024577%" y1="4.91375217%" x2="29.4883593%" y2="96.8306025%" id="linearGradient-3">
            <stop stop-color="#FFFFFF" offset="3.07%"></stop>
            <stop stop-color="#FFFFFF" offset="25.15%"></stop>
            <stop stop-color="#FBFDFE" offset="33.69%"></stop>
            <stop stop-color="#EFF5FA" offset="42.44%"></stop>
            <stop stop-color="#DAE9F4" offset="51.29%"></stop>
            <stop stop-color="#BDD8EB" offset="60.21%"></stop>
            <stop stop-color="#98C2E0" offset="69.19%"></stop>
            <stop stop-color="#6BA7D2" offset="78.21%"></stop>
            <stop stop-color="#3687C2" offset="87.1%"></stop>
            <stop stop-color="#0067B1" offset="95.09%"></stop>
        </linearGradient>
    </defs>
    <g id="Page-1" stroke="none" stroke-width="1" fill="none" fill-rule="evenodd">
        <g id="bwh-logo" transform="translate(1.000000, 1.000000)">
            <path d="M91.0038852,211.999778 C0.692676179,164.573944 0,100.265173 0,0 L182,0 C182,100.326335 181.694512,164.573944 91.0045512,212" id="Path" fill="#FFFFFF"></path>
            <path d="M91.0038852,212 C0.692676179,164.574116 0,100.265278 0,0 L182,0 C182,100.326219 181.695622,164.574116 91.0038852,212 Z" id="Path" stroke="#0067B1" stroke-width="1.5"></path>
            <path d="M175.994259,6 L6.01018975,6 L6.01018975,14.6891688 C5.94355277,52.3112746 5.897129,87.874136 16.4817481,120.468937 C21.7616258,137.250111 30.3448828,152.810818 41.7285036,166.239134 C54.3724278,181.068353 70.4661488,193.37062 90.9448057,203.871657 L91.1891413,204 L91.4334769,203.871657 C111.820619,193.306559 127.824602,180.964615 140.401445,166.128746 C151.747901,152.661734 160.291757,137.073609 165.534029,120.274761 C176.081998,87.5451889 176.038684,51.6440705 175.994259,13.5983678 L175.994259,6 Z" id="Path" fill="#0067B1"></path>
            <path d="M55.6961402,34.0131602 C54.2385019,33.4053145 52.7012224,32.9978111 51.1284252,32.8023463 C52.1988715,32.5235738 53.2368498,32.1376694 54.2257898,31.6507937 C55.5687021,30.9309095 56.7030923,29.8920262 57.5235852,28.6306472 C58.3642334,27.367975 58.8105413,25.8946721 58.8083182,24.3896276 C58.8850184,21.4441261 56.9651376,18.7999289 54.0888773,17.8896756 C51.9221682,17.2268888 49.6549427,16.930598 47.385552,17.013656 C46.6076197,17.013656 44.9675876,17.0731361 42.5375031,17.1868481 C41.5591399,17.2174629 40.2223353,17.2430481 38.5125003,17.2430481 C36.7876274,17.2430481 35.3491484,17.2308022 34.1831478,17.2087158 L30.6557434,17.0950038 C30.2396192,17.0731361 29.3822327,17.0672318 29,17.0672318 L29,19.9940034 C30.3744791,19.9858806 31.743619,20.1612872 33.0692188,20.5153291 C33.1645053,20.5824661 33.2306856,20.6817966 33.2548362,20.7939234 C33.4877874,22.3443081 33.5759071,23.9120853 33.5181122,25.4779825 C33.6051975,29.2210748 33.6527802,31.8390746 33.6527802,33.5084539 C33.6527802,39.8387126 33.6155221,44.3110924 33.5475147,46.790451 C33.5136233,47.8648106 33.4559405,48.8057772 33.3654884,49.5925767 C32.6440176,50.1517991 31.8795509,50.6562378 31.0788254,51.1014472 L31.0788254,53 C33.3702018,52.8810398 35.61624,52.792913 36.9779582,52.792913 L45.6014251,52.9713533 L45.6092807,52.9713533 C47.627205,53.0209196 49.6388042,52.7313084 51.5557718,52.1152333 C53.0879906,51.5662919 54.5161478,50.7735458 55.7821032,49.7692676 C57.0161408,48.7767862 58.0435536,47.563114 58.8087671,46.1939004 C59.6073715,44.750041 60.0170416,43.1324195 59.9994569,41.4923473 C60.0157498,39.9215041 59.6086622,38.373997 58.8188672,37.0044414 C58.1112101,35.7234794 57.0227134,34.6808011 55.6961402,34.0131602 Z M41.7674264,24.4753489 C41.7898711,23.0231157 41.8347605,21.7779694 41.9133168,20.698143 C42.7829753,20.6088144 43.6570204,20.5661808 44.5314876,20.5704357 C45.6450772,20.5128644 46.7588822,20.6797682 47.8032473,21.0607092 C48.5301402,21.4101133 49.1212918,21.9795469 49.4881687,22.6837291 C49.9520204,23.5647467 50.1796343,24.5457533 50.1498376,25.5354945 C50.1679931,26.5524347 49.9672919,27.5618025 49.560665,28.4985664 C49.2550515,29.2335517 48.7650974,29.8821102 48.1356529,30.3848732 C47.4736297,30.8430035 46.7131976,31.1481965 45.9120593,31.2772936 C44.8740946,31.4586182 43.8213979,31.5479121 42.7668876,31.5440794 L41.7173748,31.5154328 L41.7674264,24.4753489 Z M49.3855966,47.5676287 C48.1334789,48.8494891 46.3747216,49.5428771 44.5599924,49.4701176 C43.6350944,49.4869792 42.710027,49.4468814 41.79032,49.350064 L41.7180482,35.078554 C42.2041997,35.0400669 42.7224472,35.0190739 43.2458569,35.0190739 C44.7776474,34.958234 46.3072874,35.1826723 47.7527468,35.6803528 C48.8121385,36.1172005 49.695213,36.8805514 50.2665499,37.8533451 C50.962315,39.1345943 51.2949186,40.5733977 51.2300996,42.0215453 C51.367048,44.0323759 50.7068361,46.0177472 49.3855966,47.5682847 L49.3855966,47.5676287 Z" id="Shape" fill="#FFFFFF" fill-rule="nonzero"></path>
            <path d="M150.654697,23.6355291 C150.610214,22.49106 150.698683,21.3452855 150.918316,20.2213546 C150.955887,20.0981875 151.025374,19.987241 151.119674,19.8998563 C151.304834,19.7972605 151.506674,19.7284665 151.715798,19.6966764 C151.908324,19.6656566 155,19.5460087 155,19.5460087 L155,16.4143362 C155,16.4143362 148.840051,16.6153003 145.840884,16.6153003 C143.128519,16.6153003 138.10231,16.4143362 138.10231,16.4143362 L138.10231,19.5415773 C138.10231,19.5415773 141.423163,19.7101922 141.597805,19.7558357 C141.741168,19.7857134 141.878695,19.8389284 142.004936,19.9133721 C142.065976,19.9888522 142.107939,20.0780163 142.127251,20.1732738 C142.183994,20.4223187 142.287322,21.6704234 142.420898,23.8956524 C142.449821,24.6469968 142.468809,26.3874304 142.468809,28.908234 L142.468809,31.4172944 C141.105892,31.5132343 138.202326,31.5668543 133.845763,31.5668543 C130.386035,31.5668543 127.975265,31.5134559 126.638843,31.4172944 L126.638843,28.9084556 C126.638843,25.7178454 126.711261,23.2236302 126.871552,21.4951614 C126.867772,20.9783498 126.937053,20.4636123 127.077325,19.9663273 C127.198168,19.8485735 127.354755,19.7747204 127.52221,19.7565004 C127.787154,19.6973412 128.8328,19.6235583 130.620731,19.5466735 L131.040226,19.5422421 L131.040226,16.4143362 C131.040226,16.4143362 125.9926,16.6153003 123.290612,16.6153003 C120.290121,16.6153003 117.346372,16.5506018 114.562914,16.4364932 L106.787689,16.6153003 C106.178317,16.6153003 103.985464,16.5393018 100.860449,16.4143362 L100.860449,19.3964489 C102.777319,19.5460087 104.246875,19.6656566 104.376919,19.6966764 C104.56547,19.7366326 104.737612,19.8327779 104.870818,19.9725313 C104.972913,20.1374206 105.020798,20.3303359 105.007706,20.5240194 C105.005988,20.7544123 104.984418,20.9842244 104.943236,21.2108869 C104.784049,22.1957662 104.14443,24.8840769 103.014002,29.451524 L100.411368,39.536068 L97.8670223,33.2558836 C97.3185881,31.933996 95.6743895,27.7651536 93.1165754,21.1803102 C92.5370103,19.6957902 91.8183495,17.7694592 91.1754186,16 L88.2343188,16 C87.8781898,16.9099886 87.4377203,18.0453141 87.1027869,18.8646805 L83.0844687,28.486586 L79.8982957,35.9091862 C79.2107658,37.5771663 78.6901508,38.8376789 78.3240864,39.7131026 L76.365929,30.8587161 C76.1023097,29.5935505 75.668243,27.3718666 74.9985969,23.8495658 C74.685963,22.1569914 74.5113207,21.1800886 74.4879173,20.9492125 C74.4639968,20.7503028 74.4539634,20.549958 74.4578903,20.3496437 C74.4319881,20.1500979 74.4914214,19.9488694 74.6214932,19.7957183 C74.8392114,19.6316353 75.1012588,19.5374114 75.373272,19.5254027 C75.4913929,19.508785 76.6116647,19.4607042 78.2236285,19.4181628 L78.2236285,16.4234206 L69.5217617,16.6155219 L62,16.4234206 L62,19.4199353 C62.9732351,19.3987182 63.9450199,19.5061421 64.8903189,19.7394395 C65.1413783,19.8857896 65.3339881,20.11511 65.4352205,20.3881969 C66.0209685,22.1039655 66.4678186,23.8643647 66.7714217,25.6522606 L72.7311174,53 L77.0532381,53 L79.8647361,45.978885 C83.7764143,36.6966465 86.150313,31.114408 87.2028033,28.7218935 L93.7144658,45.3447512 L96.5476009,52.9995569 L101.109054,52.9995569 C101.282372,51.8338763 102.31168,47.4731541 104.145092,40.4750823 C105.955544,33.5922271 107.332369,28.5313432 108.26696,25.4264806 C108.714635,23.684801 109.277264,21.974936 109.951121,20.3082101 C110.07792,20.0755207 110.256445,19.8752843 110.47284,19.7230433 C111.049328,19.5460426 111.650331,19.4627869 112.253043,19.4764357 C112.369618,19.4620337 117.223614,19.6652135 117.403776,19.7099707 C117.618113,19.7406596 117.823792,19.8155732 118.007849,19.9299898 C118.100437,20.0217966 118.16625,20.1372621 118.198167,20.263896 C118.42213,21.4014739 118.507759,22.5621162 118.453175,23.7203904 L118.54436,28.7057189 L118.54436,40.5612731 L118.453175,45.622157 C118.505642,46.7637261 118.420014,47.9074687 118.198167,49.028355 C118.165843,49.1512692 118.094355,49.2602044 117.994601,49.3385532 C117.813598,49.4530952 117.610399,49.5277148 117.398477,49.5574645 C117.205951,49.5887059 114.10434,49.7125636 114.10434,49.7125636 L114.10434,52.8417989 C116.890005,52.7248099 120.289679,52.6352955 123.290171,52.6352955 C125.991275,52.6352955 128.910517,52.7239236 131.039784,52.8451225 L131.039784,49.7125636 C128.802332,49.6296964 127.714516,49.5461644 127.538769,49.5014073 C127.395157,49.4807458 127.258738,49.4252241 127.141353,49.3396611 C127.077958,49.2740799 127.032352,49.1933 127.008881,49.1050183 C126.971127,48.9164621 126.886565,48.1148212 126.711923,45.3449728 C126.669532,44.6293012 126.639505,42.9367268 126.639505,40.3277382 L126.639505,35.4164142 C127.008881,35.3694413 127.378478,35.3461764 127.761985,35.3350979 C129.053587,35.3038565 131.665715,35.2812564 135.54847,35.2812564 C139.060745,35.2812564 141.388058,35.3350979 142.469471,35.4164142 L142.469471,40.328846 C142.469471,43.6247021 142.403235,46.0539972 142.270763,47.7598659 C142.268084,48.2740614 142.19816,48.7856795 142.062782,49.2816097 C141.943769,49.4018691 141.786822,49.4769009 141.61878,49.4938739 C141.342796,49.5603449 138.10231,49.713893 138.10231,49.713893 L138.10231,52.845344 C138.10231,52.845344 143.128519,52.6355171 145.840884,52.6355171 C148.840271,52.6355171 155,52.8420205 155,52.8420205 L155,49.7125636 C155,49.7125636 151.879401,49.5898138 151.688199,49.5574645 C151.487271,49.5283715 151.294058,49.4596973 151.119674,49.3553925 C151.02398,49.2511941 150.94583,49.1320557 150.888289,49.0026529 C150.695371,47.8596692 150.617116,46.7001561 150.654697,45.5415055 L150.562187,40.5745673 L150.562187,28.7205641 L150.654697,23.6355291 Z" id="Path" fill="#FFFFFF"></path>
            <path d="M48.5236826,157.459864 C51.0510884,160.776521 53.7479912,163.960794 56.6036511,167 C69.7024469,164.312184 81.8906304,158.308385 92,149.56405 C66.8572942,127.638537 58.5688569,92.1062369 71.4195184,61.3360973 C71.5083825,61.1561072 72.4214611,59.2325888 72.5098809,59 C55.774549,63.81956 45.5562881,68.9147643 33.909759,82.5276464 C24.4963847,107.346738 33.1439726,137.171815 48.5236826,157.459864 Z" id="Path" fill="url(#linearGradient-1)"></path>
            <path d="M81.323371,64.7005127 C77.1754094,65.2189743 73.0601858,65.9732396 68.9975943,66.9596624 C64.7616273,79.6706441 63.8740527,93.2630393 66.4209241,106.419016 C98.013121,95.6029601 132.966517,106.242903 153.222698,132.841797 C153.389659,133.029428 154.588177,134.764236 154.727349,135 C158.919162,118.043899 159.623689,106.593054 153.632875,89.6581221 C136.81271,69.0189248 106.626984,61.5261601 81.323371,64.7005127 Z" id="Path" fill="url(#linearGradient-2)"></path>
            <path d="M144.813055,139.74207 C146.412388,135.89816 147.809967,131.972164 149,127.980348 C140.185901,117.953992 128.957158,110.384035 116.395899,106 C110.000578,138.792135 83.5063317,163.788451 50.609883,168.066609 C50.3605129,168.112452 48.2637272,168.266895 48,168.29093 C60.4963391,180.410275 69.966442,186.70662 87.4665295,190 C113.562268,185.719429 134.960172,163.25105 144.813055,139.74207 Z" id="Path" fill="url(#linearGradient-3)"></path>
        </g>
    </g>
</svg>